<svg xmlns="http://www.w3.org/2000/svg" xmlns:xlink="http://www.w3.org/1999/xlink" viewBox="0 0 116.94 37.07"><defs><style>.cls-1{fill:#0050a2;}.cls-1,.cls-2,.cls-3{fill-rule:evenodd;}.cls-2{fill:#ec1c24;}.cls-3{fill:url(#linear-gradient);}</style><linearGradient id="linear-gradient" x1="37.3" y1="17.57" x2="84.79" y2="17.57" gradientUnits="userSpaceOnUse"><stop offset="0" stop-color="#ec1c24"/><stop offset="1" stop-color="#0050a2"/></linearGradient></defs><g id="Layer_2" data-name="Layer 2"><g id="Layer_1-2" data-name="Layer 1"><path class="cls-1" d="M21.08,25.21a4.27,4.27,0,0,0-.91,2.5,3.77,3.77,0,0,0,1.31,3.21A4.15,4.15,0,0,0,24,31.8a3.75,3.75,0,0,0,2.89-1.13,4.22,4.22,0,0,0,1.07-3,4,4,0,0,0-1.19-2.81,4,4,0,0,0-5.66.31Zm12.74-6.5L33.8,37h-6V35c-1.52,1-2.53,2.11-5.34,2-5.27-.19-8.23-4.18-8.45-8.82-.19-4.07,1.8-8.24,6.72-9.26a9.84,9.84,0,0,1,1.86-.19A8.52,8.52,0,0,1,27.2,20l.64.37V18.71Z"/><path class="cls-2" d="M49,24.93a5.17,5.17,0,0,0-3.31-1.24,4,4,0,0,0-3.13,1.5,4.44,4.44,0,0,0-.88,2.45,4.12,4.12,0,0,0,1.11,3.17,3.9,3.9,0,0,0,3,1.18,4.09,4.09,0,0,0,1.74-.37A4.75,4.75,0,0,0,49,30.5v5.42A8.49,8.49,0,0,1,44.86,37a9.09,9.09,0,0,1-9.38-8.72,9.19,9.19,0,0,1,9.41-9.65,9.66,9.66,0,0,1,4.12.91Z"/><path class="cls-1" d="M52.57,37V24.12H50.33V19.41h2.21l0-3.41a7.16,7.16,0,0,1,6-7.35,7.93,7.93,0,0,1,4.1.39v5a3,3,0,0,0-2.13-.6,2.19,2.19,0,0,0-.89.26c-.43.22-1.1.94-1.1,3.07v2.6h4.13v4.72h-4.2V37Z"/><path class="cls-1" d="M63.84,37.05V18.71h5.94V22c1.06-1.47,2.67-3.19,6.85-3.32v6a5.16,5.16,0,0,0-4.9,0A4.16,4.16,0,0,0,70.53,26a5.9,5.9,0,0,0-.87,3.18v7.88Z"/><polygon class="cls-1" points="77.91 37 77.91 18.7 83.78 18.7 83.79 37 77.91 37"/><path class="cls-1" d="M77.5,12.69a3.35,3.35,0,0,1,3.34-3.36,3.28,3.28,0,0,1,3.36,3.36,3.33,3.33,0,0,1-1,2.44,3.23,3.23,0,0,1-2.38,1,3.14,3.14,0,0,1-2.35-1A3.36,3.36,0,0,1,77.5,12.69Z"/><path class="cls-1" d="M99.66,27.76a3.61,3.61,0,0,0-3.83-3.83A3.89,3.89,0,0,0,91.9,28a3.7,3.7,0,0,0,4,3.73,3.79,3.79,0,0,0,3.77-4Zm6.49,0a8.41,8.41,0,0,1-.78,3.57,9.32,9.32,0,0,1-2.26,3.05,10.78,10.78,0,0,1-3.36,2,12.45,12.45,0,0,1-7.94,0,10.06,10.06,0,0,1-3.32-2,8.82,8.82,0,0,1-2.24-3,8.53,8.53,0,0,1-.77-3.6,8.66,8.66,0,0,1,.76-3.61,9.22,9.22,0,0,1,2.25-3,10.48,10.48,0,0,1,7.31-2.43,10.56,10.56,0,0,1,7.31,2.43,9.22,9.22,0,0,1,2.27,3.06A8.58,8.58,0,0,1,106.15,27.76Z"/><path class="cls-3" d="M57.54,0H93c.25,0,.56,0,.87,0a4,4,0,0,1,1.31.26A10.86,10.86,0,0,1,97.78,2l15.7,12.3c2.47,2.21,2.07,4.58,1.34,6.55-.22.57-.41.89.23,1.17s1.16.41,1.38,1a7.72,7.72,0,0,1,.45,3.64,2.1,2.1,0,0,1-.29.83,3.25,3.25,0,0,1-1.23,1c-.3.17-.61.32-.89.51a1.4,1.4,0,0,0-.59.64,2,2,0,0,0-.08.81.92.92,0,0,1,0,.29c-.1.26-.56.3-.79.37a23,23,0,0,1-2.75.69c-.35.05-.67.09-.45,0a20,20,0,0,1,2.06-.89c.56-.19,1.09-.25,1.19-.42.22-.36-.11-.58.22-1.22a2.64,2.64,0,0,1,.76-.86,8.57,8.57,0,0,1,1.13-.69,1.22,1.22,0,0,0,.78-1.13,8.3,8.3,0,0,0-.17-2.37,3.1,3.1,0,0,0-.1-.36,1.35,1.35,0,0,0-.29-.41,3.26,3.26,0,0,0-1.1-.56c-2-.72-.38-2.24-.34-4.13a3.23,3.23,0,0,0-1.33-2.83L104,9.42c-3.68-2.76-6.47-5.18-9.32-6.76A3.82,3.82,0,0,0,93,2.18l-35.44.07a28.87,28.87,0,0,0-5,1.67l-19.07,9.9C25.49,15,16,15.93,8.39,19.17l-.73.32c-1.11.5-2.3.81-3,2.05a11,11,0,0,0-.83,2.24,1.47,1.47,0,0,1-.57.95,3.58,3.58,0,0,0-1,.86,2.22,2.22,0,0,0-.21,1.21,3.59,3.59,0,0,0,.14,1,.61.61,0,0,0,.38.45c.55.17.63.62.85,1a13.36,13.36,0,0,0,.67,1.28c1.31,1.85,3.18,3.13,6.82,3.82a3,3,0,0,1-2.38.72,8.44,8.44,0,0,1-2.39-.47A7.59,7.59,0,0,1,3.05,32.5,12.42,12.42,0,0,1,1.52,30c-.05-.11-.06-.13-.17-.17a1.61,1.61,0,0,1-.82-.59A4.76,4.76,0,0,1,0,27.07a5.81,5.81,0,0,1,.3-2.16,2.14,2.14,0,0,1,.1-.22,2.52,2.52,0,0,1,.44-.55c.22-.21.47-.43.69-.6A1.44,1.44,0,0,0,2,22.67c0-.25.11-.55.2-.88A5.38,5.38,0,0,1,5,18.33c6.18-3.36,18.6-5.92,27.4-6.68l.26,0a.23.23,0,0,0,.1-.07C37.23,8.94,47.06,3.71,52.67,1.35A21.22,21.22,0,0,1,57.54,0Z"/></g></g></svg>